<?xml version="1.0" encoding="UTF-8"?>
<svg id="Layer_2" data-name="Layer 2" xmlns="http://www.w3.org/2000/svg" viewBox="0 0 44.9 43.71">
  <defs>
    <style>
      .cls-1 {
        fill: #fef2e0;
      }

      .cls-2 {
        fill: #d9a147;
      }
    </style>
  </defs>
  <g id="Layer_1-2" data-name="Layer 1">
    <g>
      <path class="cls-1" d="M44.38,13.88c1.11,2.87.44,4.76-1.92,6.52-2.33.72-4.18,2.88-6.78,2.98.99.33,1.64.23,2.39.83.75,1.03,2.09,1.31,3.03,2.05,1.46,1.15,1.19,3.3.34,4.69-.59.96-1.16,1.66-2.37,1.67-.54,0-1,.37-1.43.48-1.02.25-2.01.05-3.1-.08l-2.87-.35c-.68-.71-1.49-1.46-1.87-2.52-1.96,1.15-2.8,2.35-4.81,3.07.15.69.95,1.02,1.05,1.64.45,2.77.45,6.53-1.69,8.6-.57.56-1.52.02-2.15-.03-1.51-.12-2.68-.86-3.16-2.34-1.37-4.16-1.74-2.17-1.14-7.65-2.66-.45-1.85.24-3.2,1.28-.82.63-1.38,1.41-1.99,2.27-1.16,1.62-3.28,2.56-5.24,1.61-1.24-.6-2.24-2.39-1.97-3.77.31-1.57,1.05-2.89,1.66-4.28.53-1.21,1.54-2.01,2.68-2.47-1.29-1.62-1.62-3.56-1.72-5.6-.04-.78-3.12.24-6.91-1.49-2.35-1.08-.73-4.46.11-5.16,2.81-2.34,4.25-3.56,7.92-1.84.64-2.2,2.14-3.79,4.16-5.08-1.64-1.85-2.68-3.55-1.2-5.9.69-1.09,1.94-2.2,3.38-1.75,3.39,1.05,3.67,1.41,5.03,5.48,4.68.82,1.83-1.77,6.44-4.96.75-.52,1.34-1.28,2.26-1.6,1.75-.61,3.68.25,4.49,2.1.57,1.3.44,3.39-.4,4.58l-2.63,3.74,1.53,2.09c4.28-1.52,8.73-1.95,12.06,1.19ZM22.68,31.49c2.85-.62,5.31-1.87,7.15-4.24.57.61,3.54,2.42,3.99,2.5.93.17,3.64,2.67,5.31,1.44-.19.14.82-1.24-.55-2.45-2.45-2.17-1.9-1.38-3.15-2.3s-2.8-.95-4.17-1.54c.55-1.34.86-2.64.93-4.02,4.26-.61,6.74-.93,10.55-2.98.34-.19.47-.73.39-.97-.07-.2-.37-.52-.71-.51-7.49.34-6.62,1.35-9.43,1.68-.21.02-.37.36-.52.29-.15-.07-.47-.17-.52-.41-.6-2.71-2.08-4.98-4.4-6.73,1.62-1.98,3.51-4.43,4.14-6.79.15-.58-.21-.92-.63-1.11-1.79-.81-4.68,5.39-5.5,6.75-2.12-.87-4.2-1.16-6.38-.81-.63-1.99-1.66-3.55-2.78-5.19-.4-.59-1.2-.98-1.82-.43-1.76,1.55.24,5.17.98,6.89-2.45,1.42-4.22,3.53-5.13,6.18-.86.2-1.59-.3-2.43-.39-1.31-.14-5.12-.02-5.47,1.22-.1.34-.06.78.23,1.06,1.99,1.92,4.45,1.34,7.09,2,.06,2.97,1.28,5.58,3.31,7.7-1.03,1.54-6.29,6.18-5.22,7.62.94,1.26,3.08-.33,4-1.29,1.03-1.06,1.84-2.18,2.79-3.36,1.64-2.05.84-.27,5.35.21.14,1.58.31,2.88.36,4.33.04,1.17.29,2.29.4,3.44.06.7.37,1.05.98,1.27,2.84,1.01,1.51-7.25.85-9.07Z"/>
      <path class="cls-2" d="M22.68,31.49c.66,1.82,1.99,10.08-.85,9.07-.61-.22-.92-.57-.98-1.27-.11-1.15-.36-2.27-.4-3.44-.05-1.45-.22-2.75-.36-4.33-4.51-.47-3.71-2.25-5.35-.21-.95,1.18-1.76,2.3-2.79,3.36-.93.96-3.07,2.56-4,1.29-1.07-1.44,4.19-6.08,5.22-7.62-2.02-2.12-3.25-4.73-3.31-7.7-2.64-.66-5.11-.07-7.09-2-.29-.28-.32-.71-.23-1.06.35-1.24,4.16-1.36,5.47-1.22.84.09,1.57.59,2.43.39.91-2.66,2.68-4.76,5.13-6.18-.74-1.72-2.74-5.34-.98-6.89.62-.55,1.42-.16,1.82.43,1.11,1.64,2.15,3.2,2.78,5.19,2.18-.35,4.26-.06,6.38.81.81-1.36,3.7-7.56,5.5-6.75.42.19.78.53.63,1.11-.62,2.36-2.51,4.82-4.14,6.79,2.32,1.75,3.79,4.01,4.4,6.73.05.23.37.34.52.41.15.07.31-.27.52-.29,2.81-.33,1.94-1.35,9.43-1.68.33-.02.63.3.71.51.08.23-.05.78-.39.97-3.8,2.05-6.28,2.38-10.55,2.98-.07,1.37-.38,2.68-.93,4.02,1.37.59,2.95.65,4.17,1.54s.7.13,3.15,2.3c1.37,1.21.36,2.59.55,2.45-1.67,1.23-4.37-1.27-5.31-1.44-.45-.08-3.42-1.9-3.99-2.5-1.84,2.37-4.3,3.62-7.15,4.24Z"/>
    </g>
  </g>
</svg>